<!-- <svg viewBox="0 0 15 15" fill="none" xmlns="http://www.w3.org/2000/svg" width="15" height="15"><path d="M11 3.5h1M4.5.5h6a4 4 0 014 4v6a4 4 0 01-4 4h-6a4 4 0 01-4-4v-6a4 4 0 014-4zm3 10a3 3 0 110-6 3 3 0 010 6z" stroke="currentColor"></path></svg> -->
<svg viewBox="0 0 15 15" fill="none" xmlns="http://www.w3.org/2000/svg" width="15" height="15"><path d="M7.5 5a2.5 2.5 0 100 5 2.5 2.5 0 000-5z" fill="currentColor"></path><path fill-rule="evenodd" clip-rule="evenodd" d="M4.5 0A4.5 4.5 0 000 4.5v6A4.5 4.5 0 004.5 15h6a4.5 4.5 0 004.5-4.5v-6A4.5 4.5 0 0010.5 0h-6zM4 7.5a3.5 3.5 0 117 0 3.5 3.5 0 01-7 0zM11 4h1V3h-1v1z" fill="currentColor"></path></svg>